<?xml version="1.0" encoding="UTF-8"?>
<svg width="40px" height="40px" viewBox="0 0 40 40" version="1.1" xmlns="http://www.w3.org/2000/svg" xmlns:xlink="http://www.w3.org/1999/xlink">
    <!-- Generator: Sketch 52 (66869) - http://www.bohemiancoding.com/sketch -->
    <title>QQ</title>
    <desc>Created with Sketch.</desc>
    <g id="Page-1" stroke="none" stroke-width="1" fill="none" fill-rule="evenodd">
        <g id="切图" transform="translate(-148.000000, -152.000000)" fill="#10BFFB">
            <g id="Group-4" transform="translate(148.000000, 152.000000)">
                <path d="M20,39 C9.50658975,39 1,30.4934102 1,20 C1,9.50658975 9.50658975,1 20,1 C30.4934102,1 39,9.50658975 39,20 C39,30.4934102 30.4934102,39 20,39 Z M19.8220535,10.2535968 C19.8220535,10.2535968 12.8893407,9.78512427 12.0494931,19.5411497 C11.0314444,21.0057786 10.5501541,23.4858472 10.7730473,24.9905175 C10.9959404,26.4951877 12.6774505,24.1751711 12.6774505,24.1751711 C12.6774505,24.1751711 13.0940848,25.6028213 13.7626506,26.3004256 C12.33069,26.9239592 12.0851107,27.899471 12.3812805,28.5268612 C12.6752323,29.1495526 15.3646422,30.9775715 19.7987381,29.1659406 C19.9038282,29.2094134 20.0170509,29.2251357 20.1388937,29.2107779 C20.3223156,29.2584269 20.486888,29.2553323 20.6340234,29.2063802 C25.0084196,30.9500188 27.6595499,29.1448482 27.9512808,28.5268612 C28.2474506,27.899471 28.0018713,26.9239592 26.5699107,26.3004256 C27.2384765,25.6028213 27.6551109,24.1751711 27.6551109,24.1751711 C27.6551109,24.1751711 29.336621,26.4951877 29.5595141,24.9905175 C29.7824072,23.4858472 29.3011169,21.0057786 28.2830682,19.5411497 C27.4432206,9.78512427 20.5105078,10.2535968 20.5105078,10.2535968 L19.8220535,10.2535968 Z" id="Combined-Shape"></path>
            </g>
        </g>
    </g>
</svg>
