<?xml version="1.0" encoding="UTF-8"?>
<svg width="40px" height="40px" viewBox="0 0 40 40" version="1.1" xmlns="http://www.w3.org/2000/svg" xmlns:xlink="http://www.w3.org/1999/xlink">
    <!-- Generator: Sketch 52 (66869) - http://www.bohemiancoding.com/sketch -->
    <title>微信</title>
    <desc>Created with Sketch.</desc>
    <g id="Page-1" stroke="none" stroke-width="1" fill="none" fill-rule="evenodd">
        <g id="Artboard" transform="translate(-58.000000, -39.000000)" fill="#4ED387 ">
            <g id="微信" transform="translate(58.000000, 39.000000)">
                <path d="M20,39 C9.50658975,39 1,30.4934102 1,20 C1,9.50658975 9.50658975,1 20,1 C30.4934102,1 39,9.50658975 39,20 C39,30.4934102 30.4934102,39 20,39 Z M16.9610563,25.1625155 C16.7692299,24.5771795 16.6666667,23.9600814 16.6666667,23.3225602 C16.6666667,19.5545642 20.249472,16.5 24.6690863,16.5 C24.8452934,16.5 25.0201703,16.5048554 25.1935431,16.5144179 C24.4593685,13.0937952 20.9209982,10.5 16.6666667,10.5 C11.8801988,10.5 8,13.7832452 8,17.8333333 C8,20.1355934 9.25381594,22.190062 11.2151865,23.5345182 L10.826311,25.0217449 C10.5841302,25.9479484 11.0823314,26.3369527 11.9359848,25.8922201 L14.004966,24.8143311 C14.8436147,25.043097 15.7380863,25.1666667 16.6666667,25.1666667 C16.7651891,25.1666667 16.8633277,25.1652756 16.9610563,25.1625155 Z M13.5,17 C12.9477153,17 12.5,16.5522847 12.5,16 C12.5,15.4477153 12.9477153,15 13.5,15 C14.0522847,15 14.5,15.4477153 14.5,16 C14.5,16.5522847 14.0522847,17 13.5,17 Z M19.5,17 C18.9477153,17 18.5,16.5522847 18.5,16 C18.5,15.4477153 18.9477153,15 19.5,15 C20.0522847,15 20.5,15.4477153 20.5,16 C20.5,16.5522847 20.0522847,17 19.5,17 Z M26.8428183,29.1826891 L28.5796039,30.0875123 C29.2961947,30.4608387 29.7144048,30.1342929 29.5111085,29.3568006 L29.1846709,28.1083629 C30.8311238,26.9797727 31.8836271,25.2551694 31.8836271,23.3225602 C31.8836271,19.9227541 28.6264329,17.1666667 24.6084802,17.1666667 C20.5905275,17.1666667 17.3333333,19.9227541 17.3333333,23.3225602 C17.3333333,26.7223663 20.5905275,29.4784537 24.6084802,29.4784537 C25.3879678,29.4784537 26.138823,29.3747244 26.8428183,29.1826891 Z M21.5,23 C20.9477153,23 20.5,22.5522847 20.5,22 C20.5,21.4477153 20.9477153,21 21.5,21 C22.0522847,21 22.5,21.4477153 22.5,22 C22.5,22.5522847 22.0522847,23 21.5,23 Z M27.5,23 C26.9477153,23 26.5,22.5522847 26.5,22 C26.5,21.4477153 26.9477153,21 27.5,21 C28.0522847,21 28.5,21.4477153 28.5,22 C28.5,22.5522847 28.0522847,23 27.5,23 Z" id="Combined-Shape"></path>
            </g>
        </g>
    </g>
</svg>
